#N canvas 0 24 1001 636 10;
#X obj 68 -62 pulse~;
#X text 918 562 ---- 0.02 seconds ----;
#X obj 67 -87 r f0;
#X text 686 568 2;
#X text 717 568 4;
#X text 694 583 -- partial number --;
#X text 749 568 6;
#X text 782 568 8;
#X text 812 566 10;
#X obj 356 -84 noise~;
#X obj 84 409 output~;
#X obj 265 360 loadbang;
#X obj 545 100 bng 15 250 50 0 empty empty empty 17 7 0 10 -262144
-1 -1;
#X msg 545 143 1;
#X msg 578 183 0;
#X obj 545 -11 gate 2;
#N canvas 84 109 737 411 parallel 0;
#X obj 361 14 inlet~;
#X obj 22 165 *~;
#X obj 22 236 bp~;
#X obj 110 163 *~;
#X obj 37 111 r A1;
#X obj 29 208 r r1;
#X obj 110 233 bp~;
#X obj 125 115 r A2;
#X obj 186 178 *~;
#X obj 187 228 bp~;
#X obj 279 184 *~ -1;
#X obj 279 159 *~;
#X obj 279 229 bp~;
#X obj 362 182 *~;
#X obj 363 232 bp~;
#X obj 438 185 *~ -1;
#X obj 438 160 *~;
#X obj 438 230 bp~;
#X obj 201 117 r A3;
#X obj 294 117 r A4;
#X obj 377 120 r A5;
#X obj 453 119 r A6;
#X obj 118 207 r r2;
#X obj 197 204 r r3;
#X obj 288 207 r r4;
#X obj 369 206 r r5;
#X obj 447 206 r r6;
#X obj 520 176 *~;
#X obj 521 226 bp~;
#X obj 533 200 r rnp;
#X obj 535 117 r AN;
#X obj 246 363 outlet~;
#X obj 60 209 r q1;
#X obj 148 207 r q2;
#X obj 229 204 r q3;
#X obj 319 206 r q4;
#X obj 400 207 r q5;
#X obj 481 205 r q6;
#X obj 572 199 r qnp;
#X obj 110 184 *~ -1;
#X obj 640 113 r AB;
#X obj 619 224 *~ 0;
#X obj 640 137 dbtorms;
#X obj 535 138 dbtorms;
#X obj 453 138 dbtorms;
#X obj 377 141 dbtorms;
#X obj 294 139 dbtorms;
#X obj 201 141 dbtorms;
#X obj 125 138 dbtorms;
#X obj 37 135 dbtorms;
#X text 38 47 Parallel bank of bandpass filters;
#X connect 0 0 1 0;
#X connect 0 0 3 0;
#X connect 0 0 8 0;
#X connect 0 0 13 0;
#X connect 0 0 16 0;
#X connect 0 0 27 0;
#X connect 0 0 41 0;
#X connect 0 0 11 0;
#X connect 1 0 2 0;
#X connect 2 0 31 0;
#X connect 3 0 39 0;
#X connect 4 0 49 0;
#X connect 5 0 2 1;
#X connect 6 0 31 0;
#X connect 7 0 48 0;
#X connect 8 0 9 0;
#X connect 9 0 31 0;
#X connect 10 0 12 0;
#X connect 11 0 10 0;
#X connect 12 0 31 0;
#X connect 13 0 14 0;
#X connect 14 0 31 0;
#X connect 15 0 17 0;
#X connect 16 0 15 0;
#X connect 17 0 31 0;
#X connect 18 0 47 0;
#X connect 19 0 46 0;
#X connect 20 0 45 0;
#X connect 21 0 44 0;
#X connect 22 0 6 1;
#X connect 23 0 9 1;
#X connect 24 0 12 1;
#X connect 25 0 14 1;
#X connect 26 0 17 1;
#X connect 27 0 28 0;
#X connect 28 0 31 0;
#X connect 29 0 28 1;
#X connect 30 0 43 0;
#X connect 32 0 2 2;
#X connect 33 0 6 2;
#X connect 34 0 9 2;
#X connect 35 0 12 2;
#X connect 36 0 14 2;
#X connect 37 0 17 2;
#X connect 38 0 28 2;
#X connect 39 0 6 0;
#X connect 40 0 42 0;
#X connect 41 0 31 0;
#X connect 42 0 41 1;
#X connect 43 0 27 1;
#X connect 44 0 16 1;
#X connect 45 0 13 1;
#X connect 46 0 11 1;
#X connect 47 0 8 1;
#X connect 48 0 3 1;
#X connect 49 0 1 1;
#X restore 184 220 pd parallel;
#N canvas 611 137 262 258 casacde 0;
#X obj 33 19 inlet~;
#X obj 34 92 bp~;
#X obj 77 126 bp~;
#X obj 120 154 bp~;
#X obj 41 55 r r1;
#X obj 84 90 r r2;
#X obj 127 117 r r3;
#X obj 154 186 bp~;
#X obj 161 154 r r4;
#X obj 72 55 r q1;
#X obj 155 210 outlet~;
#X obj 116 89 r q2;
#X obj 160 117 r q3;
#X obj 193 153 r q4;
#X text 33 0 Cascade bank of bandpass filters;
#X connect 0 0 1 0;
#X connect 1 0 2 0;
#X connect 2 0 3 0;
#X connect 3 0 7 0;
#X connect 4 0 1 1;
#X connect 5 0 2 1;
#X connect 6 0 3 1;
#X connect 7 0 10 0;
#X connect 8 0 7 1;
#X connect 9 0 1 2;
#X connect 11 0 2 2;
#X connect 12 0 3 2;
#X connect 13 0 7 2;
#X restore 107 220 pd casacde;
#X obj 69 153 spigot~;
#X obj 145 151 spigot~;
#X obj 108 118 == 1;
#X obj 172 119 == 2;
#X obj 108 61 tgl 15 0 empty empty empty 17 7 0 10 -262144 -1 -1 1
1;
#X obj 108 90 + 1;
#X text 201 150 Cascade or Parallel;
#X obj 108 36 r parallel;
#N canvas 55 137 560 449 voicedvowels 0;
#X obj 40 20 inlet;
#X obj 40 57 select a e i o u;
#X text 209 148 /i/ voiced m;
#X text 120 146 /e/ voiced m;
#X text 384 148 /u/ voiced m;
#X text 291 148 /o/ voiced m;
#X text 40 148 /a/ voiced m;
#X obj 344 102 outlet;
#X obj 351 74 bng 15 250 50 0 empty empty empty 17 7 0 10 -262144 -1
-1;
#X msg 40 160 \; r1 708 \; r2 1192 \; r3 2544 \; r4 3607 \;;
#X msg 124 159 \; r1 534 \; r2 1830 \; r3 2555 \; r4 3469 \;;
#X msg 209 160 \; r1 341 \; r2 2140 \; r3 2773 \; r4 3415 \;;
#X msg 291 160 \; r1 503 \; r2 912 \; r3 2448 \; r4 3494 \;;
#X msg 384 160 \; r1 337 \; r2 688 \; r3 2367 \; r4 3266 \;;
#X msg 405 89 \; AH 0 \; AF 0 \; AVS 60 \;;
#X connect 0 0 1 0;
#X connect 1 0 9 0;
#X connect 1 0 8 0;
#X connect 1 1 10 0;
#X connect 1 1 8 0;
#X connect 1 2 11 0;
#X connect 1 2 8 0;
#X connect 1 3 12 0;
#X connect 1 3 8 0;
#X connect 1 4 13 0;
#X connect 1 4 8 0;
#X connect 8 0 7 0;
#X connect 8 0 14 0;
#X restore 545 39 pd voicedvowels;
#N canvas 105 79 450 300 whisperedvowels 0;
#X msg -322 -48 \; r1 955 \; r2 1433 \; r3 2479 \; r4 3666 \;;
#X text -322 -60 /a/ whis m;
#X msg -238 -48 \; r1 812 \; r2 1756 \; r3 2409 \; r4 3595 \;;
#X msg -153 -48 \; r1 492 \; r2 2306 \; r3 2817 \; r4 3519 \;;
#X msg -71 -48 \; r1 724 \; r2 1187 \; r3 2608 \; r4 3494 \;;
#X msg 22 -48 \; r1 196 \; r2 685 \; r3 3037 \; r4 3266 \;;
#X text -242 -62 /e/ whis m;
#X text -153 -60 /i/ whis m;
#X text -71 -60 /o/ whis m;
#X text 22 -60 /u/ whis m;
#X obj -306 -148 inlet;
#X obj -306 -116 select a e i o u;
#X obj 4 -75 outlet;
#X obj 11 -95 bng 15 250 50 0 empty empty empty 17 7 0 10 -262144 -1
-1;
#X msg 51 -108 \; noise 1 \; parallel 0;
#X connect 10 0 11 0;
#X connect 11 0 13 0;
#X connect 11 0 0 0;
#X connect 11 1 13 0;
#X connect 11 1 2 0;
#X connect 11 2 13 0;
#X connect 11 2 3 0;
#X connect 11 3 13 0;
#X connect 11 3 4 0;
#X connect 11 4 13 0;
#X connect 11 4 5 0;
#X connect 13 0 12 0;
#X connect 13 0 14 0;
#X restore 578 58 pd whisperedvowels;
#X obj 545 -60 tgl 15 0 empty empty empty 17 7 0 10 -262144 -1 -1 0
1;
#N canvas 86 174 450 314 sonorants 0;
#X obj 16 -73 inlet;
#X obj 243 16 outlet;
#X obj 250 -12 bng 15 250 50 0 empty empty empty 17 7 0 10 -262144
-1 -1;
#X obj 17 -29 select w y r l;
#X obj 32 19 bng 15 250 50 0 empty empty empty 17 7 0 10 -262144 -1
-1;
#X text 94 44 /y/ voiced m;
#X text 183 46 /r/ voiced m;
#X msg 15 60 \; r1 290 \; r2 610 \; r3 2150 \; bw1 50 \; bw2 80 \;
bw3 60 \;;
#X msg 98 59 \; r1 260 \; r2 2070 \; r3 3020 \; bw1 40 \; bw2 250 \;
bw3 500 \;;
#X msg 181 58 \; r1 310 \; r2 1060 \; r3 1380 \; bw1 70 \; bw2 100
\; bw3 120 \;;
#X msg 268 62 \; r1 310 \; r2 1050 \; r3 2890 \; bw1 50 \; bw2 100
\; bw3 280 \;;
#X text 265 46 /l/ voiced m;
#X msg 349 -46 \; parallel 1 \; AH 0 \; AF 0 \; AVS 60 \;;
#X text 13 46 /w/ voiced m;
#X connect 0 0 3 0;
#X connect 2 0 1 0;
#X connect 2 0 12 0;
#X connect 3 0 7 0;
#X connect 3 0 2 0;
#X connect 3 0 4 0;
#X connect 3 1 2 0;
#X connect 3 1 8 0;
#X connect 3 2 2 0;
#X connect 3 2 9 0;
#X connect 3 3 2 0;
#X connect 3 3 10 0;
#X restore 716 62 pd sonorants;
#N canvas 227 437 692 154 QCalculator 0;
#X obj 71 15 r bw1;
#X obj 33 14 r r1;
#X obj 56 76 /;
#X obj 56 109 s q1;
#X obj 71 40 t f b;
#X obj 146 76 /;
#X obj 161 40 t f b;
#X obj 124 15 r r2;
#X obj 161 15 r bw2;
#X obj 146 109 s q2;
#X obj 245 77 /;
#X obj 260 41 t f b;
#X obj 221 18 r r3;
#X obj 259 16 r bw3;
#X obj 245 110 s q3;
#X obj 340 77 /;
#X obj 355 41 t f b;
#X obj 316 18 r r4;
#X obj 355 16 r bw4;
#X obj 340 109 s q4;
#X obj 427 77 /;
#X obj 442 41 t f b;
#X obj 403 18 r r5;
#X obj 442 16 r bw5;
#X obj 427 109 s q5;
#X obj 515 78 /;
#X obj 530 42 t f b;
#X obj 491 19 r r6;
#X obj 530 17 r bw6;
#X obj 515 110 s q6;
#X text 161 133 Calculates Q of bandpass filter from Bandwidth values
;
#X connect 0 0 4 0;
#X connect 1 0 2 0;
#X connect 2 0 3 0;
#X connect 4 0 2 1;
#X connect 4 1 2 0;
#X connect 5 0 9 0;
#X connect 6 0 5 1;
#X connect 6 1 5 0;
#X connect 7 0 5 0;
#X connect 8 0 6 0;
#X connect 10 0 14 0;
#X connect 11 0 10 1;
#X connect 11 1 10 0;
#X connect 12 0 10 0;
#X connect 13 0 11 0;
#X connect 15 0 19 0;
#X connect 16 0 15 1;
#X connect 16 1 15 0;
#X connect 17 0 15 0;
#X connect 18 0 16 0;
#X connect 20 0 24 0;
#X connect 21 0 20 1;
#X connect 21 1 20 0;
#X connect 22 0 20 0;
#X connect 23 0 21 0;
#X connect 25 0 29 0;
#X connect 26 0 25 1;
#X connect 26 1 25 0;
#X connect 27 0 25 0;
#X connect 28 0 26 0;
#X restore 162 409 pd QCalculator;
#X obj 545 220 adsr 10 100 200 50 100;
#X obj 545 -37 + 1;
#N canvas 84 61 819 414 fricatives 0;
#X obj 26 -63 inlet;
#X obj 262 45 outlet;
#X obj 98 17 bng 15 250 50 0 empty empty empty 17 7 0 10 -262144 -1
-1;
#X text 23 56 /f/;
#X text 104 54 /v/ voiced m;
#X obj 236 5 debounce 100;
#X msg 306 72 \; r1 270 \; r2 1290 \; r3 2540 \; bw1 60 \; bw2 80 \;
bw3 170 \; AB 48 \; AF 50 \; AV 47 \; AH 0 \; AVS 47 \;;
#X msg 191 68 \; r1 320 \; r2 1290 \; r3 2540 \; bw1 200 \; bw2 90
\; bw3 200 \; AB 48 \; AF 60 \; AV 0 \; AVS 0 \; AH 0 \;;
#X text 431 57 /s/ unvoiced m;
#X text 320 57 D/th/en voiced m;
#X text 193 56 T/th/in unvoiced m;
#X text 551 61 /z/ voiced m;
#X obj 29 -46 select f v T D s z;
#X msg 369 -44 \; parallel 1 \;;
#X msg 107 69 \; r1 220 \; r2 1100 \; r3 2080 \; bw1 60 \; bw2 90 \;
bw3 120 \; AB 57 \; AF 50 \; AV 47 \; AH 0 \; AVS 47 \;;
#X msg 430 72 \; r1 320 \; r2 1390 \; r3 2530 \; bw1 200 \; bw2 80
\; bw3 200 \; AB 0 \; AF 60 \; AV 0 \; AVS 0 \; AH 0 \; A6 52 \; bw6
1000 \; r6 4900 \;;
#X msg 553 76 \; r1 240 \; r2 1390 \; r3 2530 \; bw1 70 \; bw2 60 \;
bw3 180 \; AB 0 \; AF 50 \; AV 47 \; AVS 47 \; AH 0 \;;
#X msg 33 76 \; r1 340 \; r2 1100 \; r3 2080 \; bw1 200 \; bw2 120
\; bw3 150 \; AB 57 \; AF 60 \; AV 0 \; AVS 0 \; AH 0 \; A1 60 \;;
#X connect 0 0 12 0;
#X connect 2 0 5 0;
#X connect 5 0 1 0;
#X connect 5 0 13 0;
#X connect 12 0 17 0;
#X connect 12 0 2 0;
#X connect 12 1 2 0;
#X connect 12 1 14 0;
#X connect 12 2 2 0;
#X connect 12 2 7 0;
#X connect 12 3 2 0;
#X connect 12 3 6 0;
#X connect 12 4 2 0;
#X connect 12 4 15 0;
#X connect 12 5 2 0;
#X connect 12 5 16 0;
#X restore 802 64 pd fricatives;
#X obj 578 143 del 200;
#X obj 677 -73 keyname;
#X obj 357 88 *~;
#X obj 372 42 r AF;
#X obj 287 87 *~;
#X obj 302 25 r AH;
#X obj 302 51 dbtorms;
#X obj 372 64 dbtorms;
#X obj 135 -85 r AVS;
#X obj 135 -62 dbtorms;
#X obj 187 -85 r AV;
#X obj 107 312 *~;
#N canvas 209 24 747 389 plosives 0;
#X obj 36 -53 inlet;
#X obj 272 55 outlet;
#X obj 108 27 bng 15 250 50 0 empty empty empty 17 7 0 10 -262144 -1
-1;
#X obj 246 15 debounce 100;
#X msg 379 -34 \; parallel 1 \;;
#X obj 40 -36 select p b t d k g;
#X text 33 66 /p/;
#X msg 37 84 \; r1 400 \; r2 1100 \; r3 2150 \; bw1 300 \; bw2 150
\; bw3 220 \; AB 63 \; AF 60 \; AV 0 \; AVS 0 \; AH 0 \;;
#X text 114 64 /b/ voiced m;
#X text 203 66 /t/;
#X msg 118 79 \; r1 200 \; r2 1100 \; r3 2150 \; bw1 60 \; bw2 110
\; bw3 130 \; AB 63 \; AF 0 \; AV 47 \; AH 0 \; AVS 60 \;;
#X text 330 67 /d/ voiced m;
#X msg 200 78 \; r1 400 \; r2 1600 \; r3 2600 \; bw1 300 \; bw2 120
\; bw3 250 \; AB 0 \; AF 60 \; AV 0 \; AVS 0 \; AH 0 \;;
#X msg 314 82 \; r1 200 \; r2 1600 \; r3 2600 \; bw1 60 \; bw2 100
\; bw3 170 \; AB 0 \; AF 50 \; AV 47 \; AH 0 \; AVS 47 \;;
#X text 441 67 /k/ unvoiced m;
#X msg 442 82 \; r1 300 \; r2 1990 \; r3 2850 \; bw1 250 \; bw2 160
\; bw3 330 \; AB 0 \; AF 60 \; AV 0 \; AVS 0 \; AH 0 \;;
#X text 561 71 /g/ voiced m;
#X msg 563 86 \; r1 200 \; r2 1990 \; r3 2850 \; bw1 250 \; bw2 160
\; bw3 330 \; AB 0 \; AF 0 \; AV 47 \; AVS 47 \; AH 0 \;;
#X connect 0 0 5 0;
#X connect 2 0 3 0;
#X connect 3 0 1 0;
#X connect 3 0 4 0;
#X connect 5 0 7 0;
#X connect 5 0 2 0;
#X connect 5 1 2 0;
#X connect 5 1 10 0;
#X connect 5 2 2 0;
#X connect 5 2 12 0;
#X connect 5 3 2 0;
#X connect 5 3 13 0;
#X connect 5 4 2 0;
#X connect 5 4 15 0;
#X connect 5 5 2 0;
#X connect 5 5 17 0;
#X restore 894 65 pd plosives;
#X obj 634 184 unpack f f f f f;
#X obj 357 18 lop~ 3500;
#X msg 265 386 \; f0 250 \; q 15 \; A1 60 \; A2 60 \; A3 60 \; A4 60
\; A5 60 \; A6 60 \;;
#X msg 751 143 100 5 10 50 5;
#X obj 106 350 *~ 10;
#X obj -3 -4 lop~ 200;
#X obj 187 -60 dbtorms;
#X obj 166 -6 *~ 0;
#X obj 68 -4 *~ 0;
#X obj 357 -11 *~;
#X obj 372 -64 r f0;
#X obj 372 -35 osc~ 250;
#X text 410 -62 Amplitude Modulation;
#X text 428 15 Lowpass filter;
#X text 6 -69 Pulse Generator;
#X text 8 -27 Lowpass;
#X text 180 31 Choose if parallel or cascade structure should be employed
;
#X text 577 -65 Choose if vowels are whispered or voiced;
#X text 685 221 envelope generator;
#N canvas 364 163 450 300 voicedvowels.old 0;
#X msg -170 -176 \; r1 341 \; r2 2140 \; r3 2773 \; r4 3415 \;;
#X text -170 -188 /i/ voiced m;
#X text -259 -190 /e/ voiced m;
#X text -259 -97 /e/ voiced f;
#X msg -256 -80 \; r1 588 \; r2 2141 \; r3 2763 \; r4 3992 \;;
#X text 5 -188 /u/ voiced m;
#X msg 5 -176 \; r1 337 \; r2 688 \; r3 2367 \; r4 3266 \;;
#X text -88 -188 /o/ voiced m;
#X msg -88 -176 \; r1 503 \; r2 912 \; r3 2448 \; r4 3494 \;;
#X text -339 -188 /a/ voiced m;
#X msg -339 -176 \; r1 708 \; r2 1192 \; r3 2544 \; r4 3607 \;;
#X msg -255 -176 \; r1 534 \; r2 1830 \; r3 2555 \; r4 3469 \;;
#X restore 392 552 pd voicedvowels.old;
#N canvas 436 129 450 300 whisperedvowels.old 0;
#X msg -329 -166 \; r1 955 \; r2 1433 \; r3 2479 \; r4 3666 \;;
#X text -329 -178 /a/ whis m;
#X msg -245 -166 \; r1 812 \; r2 1756 \; r3 2409 \; r4 3595 \;;
#X msg -160 -166 \; r1 492 \; r2 2306 \; r3 2817 \; r4 3519 \;;
#X msg -78 -166 \; r1 724 \; r2 1187 \; r3 2608 \; r4 3494 \;;
#X msg 15 -166 \; r1 196 \; r2 685 \; r3 3037 \; r4 3266 \;;
#X text -249 -180 /e/ whis m;
#X text -160 -178 /i/ whis m;
#X text -78 -178 /o/ whis m;
#X text 15 -178 /u/ whis m;
#X restore 380 572 pd whisperedvowels.old;
#X text 250 342 Starting Conditions;
#X text 727 -71 Select which phoneme to synthesize;
#X text 628 -1 This contains all the necessary parameters to play the
selected phonemes;
#X floatatom 147 -37 5 0 0 0 - - -;
#X floatatom 213 -26 5 0 0 0 - - -;
#X msg 754 171 100 100 200 50 100;
#X msg 247 311 100;
#X obj 672 312 makefilename %s.wav;
#X obj 367 473 tabwrite~ output;
#X msg 400 320 start;
#X msg 423 338 stop;
#X obj 373 316 bng 15 250 50 0 empty empty empty 17 7 0 10 -262144
-1 -1;
#X msg 864 319 bang;
#X msg 862 397 set array99;
#X msg 865 369 stop;
#X msg 864 345 start 500;
#X text 964 345 start in middle of table;
#X obj 844 296 phasor~ 200;
#X text 965 318 start recording;
#X text 966 395 set destination array;
#N canvas 0 0 450 300 (subpatch) 0;
#X array output 20000 float 0;
#X coords 0 1 19999 -1 200 100 1;
#X restore 719 451 graph;
#X obj 845 427 tabwrite~ output;
#X msg 617 453 print;
#X msg 452 380 bang;
#X msg 616 405 start;
#X msg 618 431 stop;
#X obj 607 497 writesf~ 2;
#X msg 606 375 open g.wav;
#X obj 493 453 bng 15 250 50 0 empty empty empty 17 7 0 10 -262144
-1 -1;
#X obj 526 278 samplerate~;
#X obj 531 254 bng 15 250 50 0 empty empty empty 17 7 0 10 -262144
-1 -1;
#X obj 525 302 print;
#X obj 451 411 del 3000;
#X obj 675 344 prepend set open;
#X msg 633 144 100 100 200 50 100;
#X connect 0 0 54 0;
#X connect 0 0 55 0;
#X connect 2 0 0 0;
#X connect 9 0 56 0;
#X connect 11 0 49 0;
#X connect 12 0 13 0;
#X connect 12 0 34 0;
#X connect 12 0 79 0;
#X connect 13 0 31 0;
#X connect 14 0 31 0;
#X connect 15 0 26 0;
#X connect 15 1 27 0;
#X connect 16 0 45 0;
#X connect 17 0 45 0;
#X connect 18 1 17 0;
#X connect 19 1 16 0;
#X connect 20 0 18 1;
#X connect 21 0 19 1;
#X connect 22 0 23 0;
#X connect 23 0 20 0;
#X connect 23 0 21 0;
#X connect 25 0 22 0;
#X connect 26 0 12 0;
#X connect 26 0 73 0;
#X connect 26 0 74 0;
#X connect 27 0 12 0;
#X connect 28 0 32 0;
#X connect 29 0 12 0;
#X connect 29 0 102 0;
#X connect 31 0 45 1;
#X connect 32 0 15 0;
#X connect 33 0 12 0;
#X connect 33 0 102 0;
#X connect 34 0 14 0;
#X connect 35 1 29 0;
#X connect 35 1 15 1;
#X connect 35 1 33 0;
#X connect 35 1 46 0;
#X connect 35 1 75 0;
#X connect 36 0 16 0;
#X connect 37 0 41 0;
#X connect 38 0 18 0;
#X connect 39 0 40 0;
#X connect 40 0 38 1;
#X connect 41 0 36 1;
#X connect 42 0 43 0;
#X connect 43 0 55 1;
#X connect 43 0 71 0;
#X connect 44 0 53 0;
#X connect 45 0 51 0;
#X connect 46 0 12 0;
#X connect 46 0 50 0;
#X connect 47 0 31 1;
#X connect 47 1 31 2;
#X connect 47 2 31 3;
#X connect 47 3 31 4;
#X connect 47 4 31 5;
#X connect 48 0 36 0;
#X connect 48 0 38 0;
#X connect 50 0 47 0;
#X connect 51 0 10 0;
#X connect 51 0 10 1;
#X connect 51 0 76 0;
#X connect 51 0 94 0;
#X connect 52 0 55 0;
#X connect 53 0 54 1;
#X connect 53 0 72 0;
#X connect 54 0 18 0;
#X connect 55 0 18 0;
#X connect 55 0 19 0;
#X connect 56 0 48 0;
#X connect 57 0 58 0;
#X connect 58 0 56 1;
#X connect 74 0 51 1;
#X connect 75 0 101 0;
#X connect 77 0 76 0;
#X connect 78 0 76 0;
#X connect 79 0 76 0;
#X connect 80 0 89 0;
#X connect 81 0 89 0;
#X connect 82 0 89 0;
#X connect 83 0 89 0;
#X connect 85 0 89 0;
#X connect 90 0 94 0;
#X connect 91 0 92 0;
#X connect 91 0 100 0;
#X connect 92 0 94 0;
#X connect 93 0 94 0;
#X connect 95 0 94 0;
#X connect 97 0 99 0;
#X connect 98 0 97 0;
#X connect 100 0 93 0;
#X connect 100 0 96 0;
#X connect 101 0 95 0;
#X connect 102 0 47 0;
