#N canvas 299 64 450 523 10;
#X obj -96 169 line~;
#X obj -243 190 cos~;
#X obj -96 145 pack 0 50;
#X obj -242 117 -~ 0.5;
#X obj -242 143 *~;
#X obj -96 70 / 10;
#X obj -96 94 moses 0;
#X msg -96 118 0;
#X obj -243 166 clip~ -0.5 0.5;
#X text -66 44 bandwidth;
#X obj -96 194 +~ 1;
#X obj -243 214 +~ 1;
#X obj -244 265 hip~;
#X obj -243 238 *~ 0.5;
#X obj -242 93 phasor~;
#X floatatom -242 47 5 0 0 0 - - -;
#X msg -97 46 100;
#X obj -98 21 loadbang;
#X obj -243 298 outlet~;
#X text -208 21 Pulse Frequency;
#X obj -151 302 tabwrite~ pulse;
#X obj -151 272 metro 500;
#X obj -151 250 tgl 15 0 empty empty empty 17 7 0 10 -262144 -1 -1
1 1;
#X obj -45 279 bng 15 250 50 0 empty empty empty 17 7 0 10 -262144
-1 -1;
#N canvas 0 0 450 300 (subpatch) 0;
#X array pulse 882 float 2;
#X coords 0 1.02 882 -1.02 200 130 1;
#X restore -234 355 graph;
#X text -125 250 Graph Continuously;
#X obj -242 22 inlet;
#X obj -243 68 sig~;
#X connect 0 0 10 0;
#X connect 1 0 11 0;
#X connect 2 0 0 0;
#X connect 3 0 4 0;
#X connect 4 0 8 0;
#X connect 5 0 6 0;
#X connect 6 0 7 0;
#X connect 6 1 2 0;
#X connect 7 0 2 0;
#X connect 8 0 1 0;
#X connect 10 0 4 1;
#X connect 11 0 13 0;
#X connect 12 0 18 0;
#X connect 12 0 20 0;
#X connect 13 0 12 0;
#X connect 14 0 3 0;
#X connect 15 0 27 0;
#X connect 16 0 5 0;
#X connect 17 0 16 0;
#X connect 21 0 20 0;
#X connect 22 0 21 0;
#X connect 23 0 20 0;
#X connect 26 0 15 0;
#X connect 27 0 14 0;
